<?xml version="1.0" encoding="utf-8"?>
<!DOCTYPE svg PUBLIC "-//W3C//DTD SVG 1.1//EN" "http://www.w3.org/Graphics/SVG/1.1/DTD/svg11.dtd">
<svg version="1.1" xmlns="http://www.w3.org/2000/svg" xmlns:xlink="http://www.w3.org/1999/xlink" x="0px" y="0px" width="128px"
	 height="128px" viewBox="0 0 128 128" enable-background="new 0 0 128 128" xml:space="preserve">
<g id="t-mobi">
	<g>
		<g>
			<path fill="#181A1C" d="M8.458,94.511c-3.895,0-7.052-3.157-7.052-7.052V43.173c0-3.895,3.157-7.052,7.052-7.052h66.968
				c3.895,0,7.052,3.157,7.052,7.052V87.46c0,3.895-3.157,7.052-7.052,7.052H8.458z"/>
			<path fill="#58595B" d="M1.312,87.46V43.173c0-3.94,3.206-7.146,7.146-7.146h66.968c3.94,0,7.146,3.206,7.146,7.146V87.46
				c0,3.94-3.206,7.146-7.146,7.146H8.458C4.517,94.606,1.312,91.4,1.312,87.46z M82.383,43.173c0-3.836-3.121-6.957-6.957-6.957
				H8.458c-3.836,0-6.957,3.121-6.957,6.957V87.46c0,3.836,3.121,6.958,6.957,6.958h66.968c3.836,0,6.957-3.121,6.957-6.958V43.173z
				"/>
		</g>
		<path fill="#3F4044" d="M77.033,41.178v15.293h4.111v-9.76c0-7.123-3.288-8.873-4.88-8.873H6.956
			c-1.429,0-2.614,1.039-2.843,2.403c0.263-0.308,0.653-0.504,1.089-0.504h70.394C76.39,39.736,77.033,40.382,77.033,41.178z"/>
		<rect x="9.036" y="36.122" fill="#3F4142" width="0.203" height="58.39"/>
		<g>
			<path fill="#464849" d="M1.406,42.48c1.409,0.208,2.491,1.422,2.491,2.889v12.94c0,1.469-1.084,2.685-2.496,2.89"/>
			<path fill="#58595B" d="M1.387,61.107c1.377-0.2,2.416-1.403,2.416-2.797V45.37c0-1.391-1.036-2.593-2.41-2.796l0.028-0.187
				c1.466,0.216,2.571,1.498,2.571,2.983v12.94c0,1.487-1.108,2.77-2.577,2.984L1.387,61.107z"/>
		</g>
		<g>
			<g>
				<path fill="#202224" d="M2.201,49.973c-0.222,0-0.402-0.143-0.402-0.319v-1.229c0-0.176,0.18-0.319,0.402-0.319l0,0
					c0.222,0,0.402,0.143,0.402,0.319v1.229C2.603,49.83,2.423,49.973,2.201,49.973L2.201,49.973z"/>
				<path fill="#58595B" d="M1.752,49.654v-1.229c0-0.202,0.201-0.366,0.449-0.366s0.449,0.164,0.449,0.366v1.229
					c0,0.202-0.201,0.366-0.449,0.366S1.752,49.855,1.752,49.654z M2.556,48.424c0-0.15-0.159-0.272-0.355-0.272
					s-0.355,0.122-0.355,0.272v1.229c0,0.15,0.159,0.272,0.355,0.272s0.355-0.122,0.355-0.272V48.424z"/>
			</g>
			<g>
				<path fill="#202224" d="M2.201,55.574c-0.222,0-0.402-0.143-0.402-0.319v-1.229c0-0.176,0.18-0.319,0.402-0.319l0,0
					c0.222,0,0.402,0.143,0.402,0.319v1.229C2.603,55.431,2.423,55.574,2.201,55.574L2.201,55.574z"/>
				<path fill="#58595B" d="M1.752,55.255v-1.229c0-0.202,0.201-0.366,0.449-0.366s0.449,0.164,0.449,0.366v1.229
					c0,0.202-0.201,0.366-0.449,0.366S1.752,55.457,1.752,55.255z M2.556,54.026c0-0.15-0.159-0.272-0.355-0.272
					s-0.355,0.122-0.355,0.272v1.229c0,0.15,0.159,0.272,0.355,0.272s0.355-0.122,0.355-0.272V54.026z"/>
			</g>
		</g>
		<g>
			<path id="To_Move_1_" fill="#212327" d="M82.477,87.46V56.582H41.044c-0.219,0-0.397,0.178-0.397,0.397v37.533h34.778
				C79.32,94.511,82.477,91.354,82.477,87.46z"/>
			<path fill="#58595B" d="M40.553,94.606V56.978c0-0.271,0.22-0.491,0.491-0.491h41.527V87.46c0,3.94-3.206,7.146-7.146,7.146
				H40.553z M82.383,56.676H41.044c-0.167,0-0.302,0.136-0.302,0.302v37.439h34.684c3.836,0,6.957-3.121,6.957-6.958V56.676z"/>
		</g>
		<path fill="#565659" d="M46.035,91.42H6.821c-1.061,0-2.023-0.496-2.727-1.3c0.542,3.295,2.147,3.296,4.365,3.296h37.576V91.42z"
			/>
		<path fill="#D9DBDF" d="M82.477,87.46V69.697H78.97c1.225,0,2.218-0.993,2.218-2.218V56.582H46.174v37.93h29.251
			C79.32,94.511,82.477,91.354,82.477,87.46z"/>
		<rect x="45.971" y="56.582" fill="#77787C" width="0.203" height="37.838"/>
		<g>
			<path fill="#D4D5D6" d="M46.174,91.393h30.19c1.679,0,3.04-1.369,3.04-3.059v-21.39c0-1.689-1.361-3.059-3.04-3.059h-30.19
				V91.393z"/>
			<path fill="#808184" d="M76.365,91.893H45.674V63.386h30.691c1.952,0,3.54,1.596,3.54,3.559v21.39
				C79.905,90.297,78.317,91.893,76.365,91.893z M46.674,90.893h29.691c1.4,0,2.54-1.147,2.54-2.559v-21.39
				c0-1.411-1.14-2.56-2.54-2.56H46.674V90.893z"/>
		</g>
		<g>
			<path fill="#BDBEC2" d="M46.173,90.884h9.023c1.756,0,3.179-1.593,3.179-3.559V70.043c0-1.965-1.423-3.559-3.179-3.559h-9.023"/>
			<path fill="#A9ABAF" d="M46.173,91.355v-0.943h9.023c1.493,0,2.707-1.385,2.707-3.087V70.043c0-1.702-1.215-3.087-2.707-3.087
				h-9.023v-0.943h9.023c2.013,0,3.651,1.808,3.651,4.03v17.282c0,2.222-1.638,4.03-3.651,4.03H46.173z"/>
		</g>
		<rect x="46.073" y="56.582" fill="#424448" width="33.332" height="6.926"/>
		<rect x="46.174" y="63.508" fill="#76777B" width="32.61" height="5.082"/>
		<path fill="#202226" d="M48.592,66.934c0-0.392,0.319-0.71,0.712-0.71c0.393,0,0.712,0.318,0.712,0.71v4.377h26.207
			c1.077,0,1.95-0.873,1.95-1.95v-3.529c0-1.077-0.873-1.95-1.95-1.95H46.173v7.428h2.419V66.934z"/>
		<path fill="#494B4F" d="M51.962,71.31c-1.077,0-1.95-0.873-1.95-1.95v-1.541c0-1.077,0.873-1.95,1.95-1.95h24
			c1.077,0,1.95,0.873,1.95,1.95v1.541c0,1.077-0.873,1.95-1.95,1.95H51.962z"/>
		<rect x="53.638" y="64.328" fill="#1C1E22" width="1.975" height="30.092"/>
		<rect x="50.017" y="64.328" fill="#1C1E22" width="1.975" height="30.092"/>
		<rect x="46.167" y="64.328" fill="#1C1E22" width="2.425" height="29.089"/>
		<g>
			<path fill="#5D5F63" d="M71.019,62.53c-0.463,0-0.818-0.097-1.064-0.288c-0.245-0.192-0.368-0.473-0.368-0.843
				c0-0.365,0.121-0.645,0.362-0.838c0.241-0.193,0.587-0.292,1.036-0.297h0.618c0.468,0,0.823,0.097,1.066,0.291
				c0.243,0.195,0.364,0.474,0.364,0.84c0,0.365-0.12,0.645-0.36,0.838c-0.241,0.193-0.586,0.293-1.035,0.298H71.019z
				 M71.698,61.864c0.278,0,0.48-0.038,0.608-0.114c0.126-0.076,0.19-0.195,0.19-0.356c0-0.157-0.06-0.272-0.181-0.347
				c-0.121-0.074-0.309-0.114-0.566-0.119h-0.815c-0.274,0-0.477,0.037-0.61,0.112c-0.133,0.074-0.2,0.193-0.2,0.358
				c0,0.163,0.064,0.28,0.191,0.352c0.127,0.073,0.323,0.11,0.586,0.113H71.698z"/>
			<path fill="#5F6165" d="M69.961,63.041c0.105,0,0.191,0.036,0.257,0.107c0.066,0.071,0.099,0.162,0.099,0.269
				c0,0.109-0.033,0.199-0.099,0.27c-0.066,0.071-0.152,0.107-0.257,0.107c-0.104,0-0.19-0.035-0.255-0.105
				c-0.065-0.07-0.098-0.162-0.098-0.271c0-0.11,0.033-0.199,0.098-0.27C69.771,63.076,69.856,63.041,69.961,63.041z"/>
			<path fill="#7C7D81" d="M71.282,64.447l1.704,0.193v1.878h-0.555v-1.333l-0.721-0.082c0.085,0.158,0.126,0.326,0.126,0.504
				c0,0.319-0.099,0.569-0.297,0.751c-0.198,0.181-0.475,0.271-0.831,0.271c-0.216,0-0.411-0.046-0.582-0.137
				c-0.17-0.091-0.303-0.222-0.398-0.392c-0.095-0.17-0.142-0.371-0.142-0.603c0-0.202,0.041-0.39,0.123-0.564
				c0.082-0.174,0.198-0.311,0.347-0.411c0.148-0.101,0.318-0.154,0.509-0.16v0.658c-0.14,0.014-0.248,0.063-0.326,0.146
				c-0.077,0.085-0.116,0.193-0.116,0.329c0,0.151,0.055,0.266,0.163,0.347c0.109,0.081,0.262,0.122,0.459,0.122
				c0.19,0,0.336-0.046,0.437-0.14c0.101-0.095,0.153-0.226,0.153-0.399c0-0.158-0.042-0.286-0.125-0.385l-0.059-0.064
				L71.282,64.447z"/>
		</g>
		<g>
			<path fill="#5D5F63" d="M64.075,61.889v-0.665h2.565l-0.246-0.795h0.542l0.497,1.389v0.071H64.075z"/>
			<path fill="#56585B" d="M64.402,63.041c0.105,0,0.191,0.036,0.257,0.107c0.066,0.071,0.099,0.162,0.099,0.269
				c0,0.109-0.033,0.199-0.099,0.27c-0.066,0.071-0.152,0.107-0.257,0.107c-0.104,0-0.19-0.035-0.255-0.105
				c-0.065-0.07-0.098-0.162-0.098-0.271c0-0.11,0.033-0.199,0.098-0.27C64.212,63.076,64.298,63.041,64.402,63.041z"/>
			<path fill="#717376" d="M65.461,66.605c-0.463,0-0.818-0.096-1.064-0.288c-0.245-0.192-0.368-0.473-0.368-0.843
				c0-0.365,0.121-0.645,0.362-0.838c0.241-0.193,0.587-0.292,1.036-0.297h0.618c0.468,0,0.823,0.097,1.066,0.291
				c0.243,0.195,0.364,0.474,0.364,0.84c0,0.365-0.12,0.645-0.36,0.839s-0.586,0.292-1.035,0.297H65.461z M66.14,65.939
				c0.278,0,0.48-0.037,0.608-0.113c0.126-0.076,0.19-0.195,0.19-0.356c0-0.157-0.06-0.273-0.181-0.346
				c-0.121-0.075-0.309-0.114-0.566-0.119h-0.815c-0.274,0-0.477,0.037-0.61,0.111c-0.133,0.075-0.2,0.195-0.2,0.358
				c0,0.163,0.064,0.28,0.191,0.353c0.127,0.071,0.323,0.11,0.586,0.112H66.14z"/>
		</g>
		<g>
			<path fill="#5D5F63" d="M58.514,61.889v-0.665h2.565l-0.246-0.795h0.542l0.497,1.389v0.071H58.514z"/>
			<path fill="#56575B" d="M58.842,63.041c0.105,0,0.191,0.036,0.257,0.107c0.066,0.071,0.099,0.162,0.099,0.269
				c0,0.109-0.033,0.199-0.099,0.27c-0.066,0.071-0.152,0.107-0.257,0.107c-0.104,0-0.19-0.035-0.255-0.105
				c-0.065-0.07-0.098-0.162-0.098-0.271c0-0.11,0.033-0.199,0.098-0.27C58.651,63.076,58.737,63.041,58.842,63.041z"/>
			<path fill="#626367" d="M60.162,64.447l1.704,0.193v1.878h-0.555v-1.333l-0.721-0.082c0.085,0.158,0.126,0.326,0.126,0.504
				c0,0.319-0.099,0.569-0.297,0.751s-0.475,0.271-0.831,0.271c-0.216,0-0.411-0.046-0.582-0.137
				c-0.17-0.091-0.303-0.222-0.398-0.392c-0.095-0.17-0.142-0.371-0.142-0.603c0-0.202,0.041-0.39,0.123-0.564
				s0.198-0.311,0.347-0.411c0.148-0.101,0.318-0.154,0.509-0.16v0.658c-0.14,0.014-0.248,0.063-0.326,0.146
				c-0.077,0.085-0.116,0.193-0.116,0.329c0,0.151,0.055,0.266,0.163,0.347c0.109,0.081,0.262,0.122,0.459,0.122
				c0.19,0,0.336-0.046,0.437-0.14c0.101-0.095,0.153-0.226,0.153-0.399c0-0.158-0.042-0.286-0.125-0.385l-0.059-0.064
				L60.162,64.447z"/>
		</g>
		<g>
			<path fill="#5D5F63" d="M52.954,62.57v-2.298h0.456l1.156,1.085c0.163,0.149,0.304,0.259,0.425,0.33
				c0.122,0.071,0.237,0.107,0.346,0.107c0.148,0,0.266-0.037,0.351-0.113c0.086-0.075,0.129-0.183,0.129-0.323
				c0-0.151-0.053-0.269-0.156-0.356c-0.103-0.087-0.24-0.13-0.409-0.13v-0.668c0.204,0,0.391,0.049,0.559,0.146
				c0.169,0.098,0.302,0.236,0.398,0.414c0.096,0.178,0.144,0.38,0.144,0.606c0,0.346-0.084,0.614-0.248,0.805
				c-0.166,0.191-0.4,0.286-0.703,0.286c-0.165,0-0.334-0.042-0.507-0.128c-0.171-0.086-0.371-0.234-0.6-0.442l-0.804-0.762v1.441
				H52.954z"/>
			<path fill="#4E5053" d="M53.282,63.041c0.105,0,0.191,0.036,0.257,0.107c0.066,0.071,0.099,0.162,0.099,0.269
				c0,0.109-0.033,0.199-0.099,0.27c-0.066,0.071-0.152,0.107-0.257,0.107c-0.104,0-0.19-0.035-0.255-0.105
				c-0.065-0.07-0.098-0.162-0.098-0.271c0-0.11,0.033-0.199,0.098-0.27C53.092,63.076,53.178,63.041,53.282,63.041z"/>
			<path fill="#48494D" d="M54.34,66.605c-0.463,0-0.818-0.096-1.064-0.288c-0.245-0.192-0.368-0.473-0.368-0.843
				c0-0.365,0.121-0.645,0.362-0.838c0.241-0.193,0.587-0.292,1.036-0.297h0.618c0.468,0,0.823,0.097,1.066,0.291
				c0.243,0.195,0.364,0.474,0.364,0.84c0,0.365-0.12,0.645-0.36,0.839s-0.586,0.292-1.035,0.297H54.34z M55.019,65.939
				c0.278,0,0.48-0.037,0.608-0.113c0.126-0.076,0.19-0.195,0.19-0.356c0-0.157-0.06-0.273-0.181-0.346
				c-0.121-0.075-0.309-0.114-0.566-0.119h-0.815c-0.274,0-0.477,0.037-0.61,0.111c-0.133,0.075-0.2,0.195-0.2,0.358
				c0,0.163,0.064,0.28,0.191,0.353c0.127,0.071,0.323,0.11,0.586,0.112H55.019z"/>
		</g>
		<g>
			<path fill="#66686C" d="M51.254,77.453l-0.26,0.02c0.202,0.165,0.303,0.387,0.303,0.668c0,0.299-0.118,0.506-0.354,0.617
				c0.236,0.164,0.354,0.397,0.354,0.699c0,0.252-0.074,0.44-0.22,0.563c-0.147,0.123-0.368,0.185-0.663,0.185h-1.485v-0.623h1.483
				c0.132,0,0.228-0.025,0.289-0.077c0.061-0.052,0.091-0.143,0.091-0.273c0-0.187-0.088-0.315-0.266-0.388l-1.597,0.002v-0.621
				h1.481c0.135,0,0.232-0.026,0.292-0.079c0.06-0.053,0.09-0.144,0.09-0.271c0-0.176-0.073-0.303-0.219-0.382h-1.644v-0.621h2.325
				V77.453z"/>
			<path fill="#66686C" d="M48.929,81.338v-0.624h3.301v0.624H48.929z"/>
		</g>
		<path fill="#C4C5C9" d="M71.361,85.468c-0.403,0-0.73-0.327-0.73-0.73V73.886c0-0.403,0.327-0.73,0.73-0.73h0.094
			c0.403,0,0.73,0.327,0.73,0.73v10.853c0,0.403-0.327,0.73-0.73,0.73H71.361z"/>
		<path fill="#67696D" d="M54.528,85.468c-0.403,0-0.73-0.327-0.73-0.73V73.886c0-0.403,0.327-0.73,0.73-0.73h0.094
			c0.403,0,0.73,0.327,0.73,0.73v10.853c0,0.403-0.327,0.73-0.73,0.73H54.528z"/>
		<path fill="#BDBFC3" d="M65.75,85.468c-0.403,0-0.73-0.327-0.73-0.73V73.886c0-0.403,0.327-0.73,0.73-0.73h0.094
			c0.403,0,0.73,0.327,0.73,0.73v10.853c0,0.403-0.327,0.73-0.73,0.73H65.75z"/>
		<path fill="#ADAFB3" d="M60.139,85.468c-0.403,0-0.73-0.327-0.73-0.73V73.886c0-0.403,0.327-0.73,0.73-0.73h0.094
			c0.403,0,0.73,0.327,0.73,0.73v10.853c0,0.403-0.327,0.73-0.73,0.73H60.139z"/>
		<g>
			<path fill="#F5F5F5" d="M127.022,71.381h-13.459c-1.261,0-2.282,1.022-2.282,2.282v11.299c0,1.261,1.022,2.282,2.282,2.282
				h13.459V71.381z"/>
			<rect x="101.501" y="76.974" fill="#E4E4E4" width="10.1" height="4.676"/>
			<polygon fill="#D4D4D4" points="98.405,80.477 98.405,78.147 101.501,76.974 102.499,78.147 102.499,80.478 101.501,81.651 			
				"/>
			<path fill="#F5F7FB" d="M83.691,82.491c-0.464,0-0.84-0.376-0.84-0.84v-4.676c0-0.464,0.376-0.84,0.84-0.84h4.799
				c0.464,0,0.84,0.376,0.84,0.84v4.676c0,0.464-0.376,0.84-0.84,0.84H83.691z"/>
			<polygon fill="#C9CACE" points="84.589,82.491 84.589,76.134 82.415,73.416 82.415,85.209 			"/>
			<rect x="92.426" y="78.147" fill="#DFDFDF" width="5.978" height="2.33"/>
			<rect x="98.405" y="78.147" fill="#C4C4C4" width="2.881" height="2.33"/>
			<polygon fill="#DADADB" points="92.426,80.477 92.426,78.147 89.33,76.974 89.33,81.651 			"/>
			<polygon fill="#CBCDCF" points="86.233,80.477 86.233,78.147 89.33,76.974 89.33,81.651 			"/>
			<rect x="86.534" y="78.147" fill="#B6B7BB" width="2.796" height="2.33"/>
			<rect x="89.33" y="78.147" fill="#C6C6C6" width="3.097" height="2.33"/>
			<rect x="84.542" y="78.147" fill="#DEE0E4" width="1.993" height="2.33"/>
			<path fill="#F0F0F0" d="M127.022,72.652h-14.01c-0.439,0-0.794,0.347-0.794,0.775v11.868c0,0.428,0.356,0.775,0.794,0.775h14.01
				V72.652z"/>
			<polygon fill="#DCDCDC" points="112.36,81.99 112.36,76.634 111.273,74.345 111.273,84.28 			"/>
			<rect x="101.286" y="78.147" fill="#A9A9A9" width="10.531" height="2.33"/>
			<rect x="111.592" y="78.147" fill="#B9B9B9" width="2.289" height="2.33"/>
			<rect x="112.36" y="76.634" fill="#DCDCDC" width="14.662" height="5.356"/>
			<g>
				<path fill="#C8C8C8" d="M119.49,73.829c0.403,0,0.73,0.312,0.73,0.697l-1.886,9.573c0,0.385-0.327,0.697-0.73,0.697h-1.217
					c-0.403,0-0.73-0.312-0.73-0.697l1.886-9.573c0-0.385,0.327-0.697,0.73-0.697H119.49z"/>
				<path fill="#C8C8C8" d="M123.614,73.829c0.403,0,0.73,0.312,0.73,0.697l-1.886,9.573c0,0.385-0.327,0.697-0.73,0.697h-1.217
					c-0.403,0-0.73-0.312-0.73-0.697l1.886-9.573c0-0.385,0.327-0.697,0.73-0.697H123.614z"/>
				<path fill="#C8C8C8" d="M115.366,73.829c0.403,0,0.73,0.312,0.73,0.697l-1.886,9.573c0,0.385-0.327,0.697-0.73,0.697h0.004
					c-0.062,0-0.064-0.312-0.064-0.697v-9.573c0-0.385,0.327-0.697,0.73-0.697H115.366z"/>
				<path fill="#C8C8C8" d="M126.583,84.099l0.439-2.228v-8.041h-0.499c-0.403,0-0.73,0.312-0.73,0.697l-1.886,9.573
					c0,0.385,0.327,0.697,0.73,0.697h1.217C126.256,84.796,126.583,84.484,126.583,84.099z"/>
			</g>
		</g>
		<rect x="46.208" y="73.416" fill="#35373B" width="1.95" height="20"/>
		<path fill="#B2B4B8" d="M80.164,68.547l-0.222-1.901c-0.191-0.749-0.497-1.357-1.246-1.357c-0.749,0-0.905,1.091-0.996,1.357
			c0,0-0.153,1.731-1.027,1.751c-0.313,0.007-18.706,0-18.706,0v1.507h20.839C79.557,69.904,80.164,69.297,80.164,68.547z"/>
		<path fill="#2D2F33" d="M57.462,68.107c0.582-0.014,1.231,0.624,1.231,1.12v0.111c0,0.496-0.402,0.566-0.898,0.566h-9.932
			c-0.496,0-0.566-0.402-0.566-0.898l0,0c0-0.496,0.069-0.898,0.233-0.898H57.462z"/>
		<polygon fill="#A4A6AA" points="80.811,82.491 80.811,76.134 79.482,73.416 79.482,85.209 		"/>
		<polygon fill="#E6E7EB" points="80.811,81.335 80.811,77.29 79.482,75.561 79.482,83.064 		"/>
		<polygon fill="#484A4E" points="81.636,82.491 81.636,76.134 82.415,73.416 82.415,85.209 		"/>
		<rect x="79.405" y="78.147" fill="#CBCDD1" width="5.137" height="2.33"/>
		<polygon fill="#86878B" points="81.188,66.926 81.188,56.582 82.267,56.582 82.267,65.723 		"/>
		<rect x="76.7" y="56.582" fill="#838588" width="2.705" height="6.926"/>
	</g>
</g>
</svg>
